<svg version="1.1" id="Layer_1" xmlns="http://www.w3.org/2000/svg" xmlns:xlink="http://www.w3.org/1999/xlink" x="0px" y="0px"
	 width="100%" viewBox="0 0 500 500" enable-background="new 0 0 500 500" xml:space="preserve">
<path fill="#F6F4F0" opacity="1.000000" stroke="none" 
	d="
M321.000000,501.000000 
	C214.000031,501.000000 107.500053,501.000000 1.000057,501.000000 
	C1.000038,334.333405 1.000038,167.666794 1.000019,1.000147 
	C167.666565,1.000098 334.333130,1.000098 500.999756,1.000049 
	C500.999847,167.666519 500.999847,334.333038 500.999939,500.999786 
	C441.166656,501.000000 381.333344,501.000000 321.000000,501.000000 
M152.196640,112.170189 
	C150.033127,112.083679 147.869949,111.931030 145.706070,111.920723 
	C119.645988,111.796516 97.036636,120.022308 79.219246,139.630554 
	C64.395683,155.944077 59.303642,175.665115 59.307961,197.144333 
	C59.320156,257.803955 59.312000,318.463562 59.311855,379.123199 
	C59.311852,380.737701 59.311852,382.352234 59.311852,384.124634 
	C80.537552,384.124634 101.224747,384.124634 122.175674,384.124634 
	C122.175674,381.916077 122.175674,380.095642 122.175674,378.275208 
	C122.175713,316.782349 122.166420,255.289474 122.204117,193.796616 
	C122.205948,190.812378 122.358505,187.781036 122.887894,184.852432 
	C125.279533,171.622070 139.395447,163.910599 151.906708,168.879654 
	C161.228943,172.582138 166.155579,180.405838 166.220428,191.783203 
	C166.454010,232.769852 166.028839,273.773376 167.111053,314.737274 
	C167.787582,340.345520 180.339493,360.490082 201.691650,374.562531 
	C222.742493,388.436401 245.950531,391.754120 270.556946,386.930359 
	C306.745270,379.836121 333.342987,349.778900 335.063568,313.123444 
	C335.797302,297.491882 335.649017,281.814148 335.706390,266.156708 
	C335.799835,240.660004 335.584259,215.161530 335.786163,189.666077 
	C335.920959,172.645615 353.753571,162.022705 368.370361,170.062866 
	C377.333466,174.993149 379.808319,183.283752 379.804169,192.836899 
	C379.777374,254.663055 379.790710,316.489227 379.790833,378.315369 
	C379.790863,380.251404 379.790833,382.187439 379.790833,384.213318 
	C400.980957,384.213318 421.563629,384.213318 442.375488,384.213318 
	C442.476135,382.971802 442.622314,382.009705 442.622467,381.047577 
	C442.632507,319.221436 442.694824,257.395142 442.576508,195.569214 
	C442.552521,183.027725 440.860260,170.667007 435.308929,159.183578 
	C423.078552,133.883972 403.024963,118.366089 375.465668,113.601181 
	C342.702271,107.936523 314.012451,116.142952 291.530853,141.688873 
	C277.720093,157.382111 273.195404,176.383408 273.170807,196.751785 
	C273.124908,234.747299 273.136047,272.742889 273.157623,310.738464 
	C273.162903,320.022552 268.955566,326.819672 260.697876,330.669220 
	C252.357040,334.557495 244.131805,333.836578 236.851486,327.819702 
	C230.689423,322.727051 229.112167,315.715515 229.106155,308.111603 
	C229.075027,268.783661 229.164398,229.454697 228.890533,190.128326 
	C228.787704,175.363068 224.689972,161.530685 216.391098,149.175644 
	C201.280518,126.679642 179.753616,115.056465 152.196640,112.170189 
z"/>
<path fill="#232323" opacity="1.000000" stroke="none" 
	d="
M152.660431,112.198143 
	C179.753616,115.056465 201.280518,126.679642 216.391098,149.175644 
	C224.689972,161.530685 228.787704,175.363068 228.890533,190.128326 
	C229.164398,229.454697 229.075027,268.783661 229.106155,308.111603 
	C229.112167,315.715515 230.689423,322.727051 236.851486,327.819702 
	C244.131805,333.836578 252.357040,334.557495 260.697876,330.669220 
	C268.955566,326.819672 273.162903,320.022552 273.157623,310.738464 
	C273.136047,272.742889 273.124908,234.747299 273.170807,196.751785 
	C273.195404,176.383408 277.720093,157.382111 291.530853,141.688873 
	C314.012451,116.142952 342.702271,107.936523 375.465668,113.601181 
	C403.024963,118.366089 423.078552,133.883972 435.308929,159.183578 
	C440.860260,170.667007 442.552521,183.027725 442.576508,195.569214 
	C442.694824,257.395142 442.632507,319.221436 442.622467,381.047577 
	C442.622314,382.009705 442.476135,382.971802 442.375488,384.213318 
	C421.563629,384.213318 400.980957,384.213318 379.790833,384.213318 
	C379.790833,382.187439 379.790863,380.251404 379.790833,378.315369 
	C379.790710,316.489227 379.777374,254.663055 379.804169,192.836899 
	C379.808319,183.283752 377.333466,174.993149 368.370361,170.062866 
	C353.753571,162.022705 335.920959,172.645615 335.786163,189.666077 
	C335.584259,215.161530 335.799835,240.660004 335.706390,266.156708 
	C335.649017,281.814148 335.797302,297.491882 335.063568,313.123444 
	C333.342987,349.778900 306.745270,379.836121 270.556946,386.930359 
	C245.950531,391.754120 222.742493,388.436401 201.691650,374.562531 
	C180.339493,360.490082 167.787582,340.345520 167.111053,314.737274 
	C166.028839,273.773376 166.454010,232.769852 166.220428,191.783203 
	C166.155579,180.405838 161.228943,172.582138 151.906708,168.879654 
	C139.395447,163.910599 125.279533,171.622070 122.887894,184.852432 
	C122.358505,187.781036 122.205948,190.812378 122.204117,193.796616 
	C122.166420,255.289474 122.175713,316.782349 122.175674,378.275208 
	C122.175674,380.095642 122.175674,381.916077 122.175674,384.124634 
	C101.224747,384.124634 80.537552,384.124634 59.311852,384.124634 
	C59.311852,382.352234 59.311852,380.737701 59.311855,379.123199 
	C59.312000,318.463562 59.320156,257.803955 59.307961,197.144333 
	C59.303642,175.665115 64.395683,155.944077 79.219246,139.630554 
	C97.036636,120.022308 119.645988,111.796516 145.706070,111.920723 
	C147.869949,111.931030 150.033127,112.083679 152.660431,112.198143 
z"/>
</svg>